[Header]
FileType HTR
DataType HTRS
FileVersion 1
NumSegments 64
NumFrames 3
DataFrameRate 24
EulerRotationOrder ZYX
CalibrationUnits mm
RotationUnits Degrees
GlobalAxisofGravity Y
BoneLengthAxis Y
ScaleFactor 1.0
[SegmentNames&Hierarchy]
Hips	GLOBAL
Spine	Hips
Spine1	Spine
Spine2	Spine1
Neck	Spine2
Head	Neck
LeftEye	Head
RightEye	Head
LeftShoulder	Spine2
LeftArm	LeftShoulder
LeftForeArm	LeftArm
LeftHand	LeftForeArm
LeftHandThumb1	LeftHand
LeftHandThumb2	LeftHandThumb1
LeftHandThumb3	LeftHandThumb2
LeftHandThumb4	LeftHandThumb3
LeftHandIndex1	LeftHand
LeftHandIndex2	LeftHandIndex1
LeftHandIndex3	LeftHandIndex2
LeftHandIndex4	LeftHandIndex3
LeftHandMiddle1	LeftHand
LeftHandMiddle2	LeftHandMiddle1
LeftHandMiddle3	LeftHandMiddle2
LeftHandMiddle4	LeftHandMiddle3
LeftHandRing1	LeftHand
LeftHandRing2	LeftHandRing1
LeftHandRing3	LeftHandRing2
LeftHandRing4	LeftHandRing3
LeftHandPinky1	LeftHand
LeftHandPinky2	LeftHandPinky1
LeftHandPinky3	LeftHandPinky2
LeftHandPinky4	LeftHandPinky3
RightShoulder	Spine2
RightArm	RightShoulder
RightForeArm	RightArm
RightHand	RightForeArm
RightHandPinky1	RightHand
RightHandPinky2	RightHandPinky1
RightHandPinky3	RightHandPinky2
RightHandPinky4	RightHandPinky3
RightHandRing1	RightHand
RightHandRing2	RightHandRing1
RightHandRing3	RightHandRing2
RightHandRing4	RightHandRing3
RightHandMiddle1	RightHand
RightHandMiddle2	RightHandMiddle1
RightHandMiddle3	RightHandMiddle2
RightHandMiddle4	RightHandMiddle3
RightHandIndex1	RightHand
RightHandIndex2	RightHandIndex1
RightHandIndex3	RightHandIndex2
RightHandIndex4	RightHandIndex3
RightHandThumb1	RightHand
RightHandThumb2	RightHandThumb1
RightHandThumb3	RightHandThumb2
RightHandThumb4	RightHandThumb3
LeftUpLeg	Hips
LeftLeg	LeftUpLeg
LeftFoot	LeftLeg
LeftToeBase	LeftFoot
RightUpLeg	Hips
RightLeg	RightUpLeg
RightFoot	RightLeg
RightToeBase	RightFoot
[BasePosition]
Hips	0	0	0	0	0	0	1
Spine	0	0	0	0	0	0	1
Spine1	0	0	0	0	0	0	1
Spine2	0	0	0	0	0	0	1
Neck	0	0	0	0	0	0	1
Head	0	0	0	0	0	0	1
LeftEye	0	0	0	0	0	0	1
RightEye	0	0	0	0	0	0	1
LeftShoulder	0	0	0	0	0	0	1
LeftArm	0	0	0	0	0	0	1
LeftForeArm	0	0	0	0	0	0	1
LeftHand	0	0	0	0	0	0	1
LeftHandThumb1	0	0	0	0	0	0	1
LeftHandThumb2	0	0	0	0	0	0	1
LeftHandThumb3	0	0	0	0	0	0	1
LeftHandThumb4	0	0	0	0	0	0	1
LeftHandIndex1	0	0	0	0	0	0	1
LeftHandIndex2	0	0	0	0	0	0	1
LeftHandIndex3	0	0	0	0	0	0	1
LeftHandIndex4	0	0	0	0	0	0	1
LeftHandMiddle1	0	0	0	0	0	0	1
LeftHandMiddle2	0	0	0	0	0	0	1
LeftHandMiddle3	0	0	0	0	0	0	1
LeftHandMiddle4	0	0	0	0	0	0	1
LeftHandRing1	0	0	0	0	0	0	1
LeftHandRing2	0	0	0	0	0	0	1
LeftHandRing3	0	0	0	0	0	0	1
LeftHandRing4	0	0	0	0	0	0	1
LeftHandPinky1	0	0	0	0	0	0	1
LeftHandPinky2	0	0	0	0	0	0	1
LeftHandPinky3	0	0	0	0	0	0	1
LeftHandPinky4	0	0	0	0	0	0	1
RightShoulder	0	0	0	0	0	0	1
RightArm	0	0	0	0	0	0	1
RightForeArm	0	0	0	0	0	0	1
RightHand	0	0	0	0	0	0	1
RightHandPinky1	0	0	0	0	0	0	1
RightHandPinky2	0	0	0	0	0	0	1
RightHandPinky3	0	0	0	0	0	0	1
RightHandPinky4	0	0	0	0	0	0	1
RightHandRing1	0	0	0	0	0	0	1
RightHandRing2	0	0	0	0	0	0	1
RightHandRing3	0	0	0	0	0	0	1
RightHandRing4	0	0	0	0	0	0	1
RightHandMiddle1	0	0	0	0	0	0	1
RightHandMiddle2	0	0	0	0	0	0	1
RightHandMiddle3	0	0	0	0	0	0	1
RightHandMiddle4	0	0	0	0	0	0	1
RightHandIndex1	0	0	0	0	0	0	1
RightHandIndex2	0	0	0	0	0	0	1
RightHandIndex3	0	0	0	0	0	0	1
RightHandIndex4	0	0	0	0	0	0	1
RightHandThumb1	0	0	0	0	0	0	1
RightHandThumb2	0	0	0	0	0	0	1
RightHandThumb3	0	0	0	0	0	0	1
RightHandThumb4	0	0	0	0	0	0	1
LeftUpLeg	0	0	0	0	0	0	1
LeftLeg	0	0	0	0	0	0	1
LeftFoot	0	0	0	0	0	0	1
LeftToeBase	0	0	0	0	0	0	1
RightUpLeg	0	0	0	0	0	0	1
RightLeg	0	0	0	0	0	0	1
RightFoot	0	0	0	0	0	0	1
RightToeBase	0	0	0	0	0	0	1
[Hips]
16	5.540975571	940.310791	2342.572998	6.464967251	-3.423264503	-8.0971241	1.0
17	0.5284231901	924.4989624	2498.963867	7.826589584	-3.749360323	-10.0494442	1.0
18	4.962738037	933.4868164	2657.627197	9.884972572	-2.706245899	-9.746565819	1.0
[Spine]
16	0	101.8159943	1.315000057	5.334431648	3.476121426	5.684196949	1.0
17	0	101.8159943	1.315000057	4.226922989	3.742090702	5.94182682	1.0
18	0	101.8159943	1.315000057	2.494077682	3.233091116	6.199231148	1.0
[Spine1]
16	0	100.8349991	-10.00800037	10.54715824	-2.660369158	1.183123469	1.0
17	0	100.8349991	-10.00800037	9.846054077	-1.243109107	1.767517567	1.0
18	0	100.8349991	-10.00800037	8.217849731	-0.7737065554	1.318890691	1.0
[Spine2]
16	0	91	-13.73399925	7.395667553	-3.282890558	5.441977978	1.0
17	0	91	-13.73399925	6.738636494	-1.839340806	6.132594585	1.0
18	0	91	-13.73399925	5.127470016	-1.259088635	5.746160507	1.0
[Neck]
16	0	166.7169952	-25.16200066	-14.08605289	1.433204293	-3.5831213	1.0
17	0	166.7169952	-25.16200066	-14.38377094	0.8129051924	-4.192060471	1.0
18	0	166.7169952	-25.16200066	-10.43348789	0.6357984543	-4.111563683	1.0
[Head]
16	0	96.17900085	16.84999847	-20.53336334	5.562789917	-0.4044796824	1.0
17	0	96.17900085	16.84999847	-19.90227318	4.26406765	0.7909812331	1.0
18	0	96.17900085	16.84999847	-20.73627853	3.731157541	0.5288540721	1.0
[LeftEye]
16	30.6760006	64.09500122	92.83599854	0	0	0	1.0
17	30.6760006	64.09500122	92.83599854	0	0	0	1.0
18	30.6760006	64.09500122	92.83599854	0	0	0	1.0
[RightEye]
16	-30.6760006	64.09500122	92.83499908	0	0	0	1.0
17	-30.6760006	64.09500122	92.83499908	0	0	0	1.0
18	-30.6760006	64.09500122	92.83499908	0	0	0	1.0
[LeftShoulder]
16	45.70400238	109.4599991	-26.28000069	3.077990294	-15.88613224	-18.68266678	1.0
17	45.70400238	109.4599991	-26.28000069	2.334372282	-13.09686756	-17.68520546	1.0
18	45.70400238	109.4599991	-26.28000069	0.7274084091	-9.996411324	-14.50093269	1.0
[LeftArm]
16	105.923996	-5.24600029	-22.32099915	-6.325553894	-3.640585661	-52.12141418	1.0
17	105.923996	-5.24600029	-22.32099915	-1.770568252	15.17300415	-59.42467117	1.0
18	105.923996	-5.24600029	-22.32099915	-1.186667562	30.69405365	-63.31858826	1.0
[LeftForeArm]
16	278.414978	-0.0009999999311	0	0	-106.250412	-0.0002136230469	1.0
17	278.414978	-0.0009999999311	0	-0.000122070247	-100.013504	-0.0001373291452	1.0
18	278.414978	-0.0009999999311	0	0.0001547558059	-83.34681702	-0.0003230765869	1.0
[LeftHand]
16	283.2879944	0	0	-8.372656822	-22.62708092	-1.50421381	1.0
17	283.2879944	0	0	4.691367149	-11.57982635	-10.82143021	1.0
18	283.2879944	0	0	13.04038429	-6.343992233	-8.620358467	1.0
[LeftHandThumb1]
16	24.6609993	-15.75	26.8239994	12.22874832	-3.698987007	9.463784218	1.0
17	24.6609993	-15.75	26.8239994	12.32334805	-3.497737408	9.582375526	1.0
18	24.6609993	-15.75	26.8239994	12.36618423	-3.402401686	9.637271881	1.0
[LeftHandThumb2]
16	32.29800034	-18.64699936	18.64699936	3.983394146	17.44439888	4.304719448	1.0
17	32.29800034	-18.64699936	18.64699936	5.010221004	16.99733543	6.181025982	1.0
18	32.29800034	-18.64699936	18.64699936	6.041775227	17.12593269	7.402258396	1.0
[LeftHandThumb3]
16	26.52600098	-15.31499958	15.31499958	1.178550959	-10.2149086	-3.05775404	1.0
17	26.52600098	-15.31499958	15.31499958	-0.190040648	-10.18759346	-3.678551912	1.0
18	26.52600098	-15.31499958	15.31499958	-1.849271894	-7.259414196	-3.505576372	1.0
[LeftHandThumb4]
16	19.54599953	-11.28499985	11.28499985	0	0	0	1.0
17	19.54599953	-11.28499985	11.28499985	0	0	0	1.0
18	19.54599953	-11.28499985	11.28499985	0	0	0	1.0
[LeftHandIndex1]
16	91.09299469	-5.170999527	22.60099792	-11.47254086	8.806002617	-92.66125488	1.0
17	91.09299469	-5.170999527	22.60099792	-10.90278244	8.056898117	-87.00475311	1.0
18	91.09299469	-5.170999527	22.60099792	-10.79356384	6.663593769	-85.93948364	1.0
[LeftHandIndex2]
16	36.76399994	0	0	-3.354736328	5.304210663	-57.9155159	1.0
17	36.76399994	0	0	-3.796105862	5.481256962	-62.60919189	1.0
18	36.76399994	0	0	-4.328958035	5.641917229	-68.10327911	1.0
[LeftHandIndex3]
16	28.83100128	0	0	-1.673609376	3.82540369	-44.55565262	1.0
17	28.83100128	0	0	-2.025941849	4.153614521	-49.36207962	1.0
18	28.83100128	0	0	-2.468493462	4.496451855	-54.95291138	1.0
[LeftHandIndex4]
16	23.92700005	0	0	0	0	0	1.0
17	23.92700005	0	0	0	0	0	1.0
18	23.92700005	0	0	0	0	0	1.0
[LeftHandMiddle1]
16	95.33399963	0	0	-11.27453423	9.721095085	-90.19442749	1.0
17	95.33399963	0	0	-11.07198238	8.238915443	-88.53923798	1.0
18	95.33399963	0	0	-11.09007168	6.453284264	-88.9291687	1.0
[LeftHandMiddle2]
16	36.98199844	0	0	-2.929915667	4.989573479	-52.3311348	1.0
17	36.98199844	0	0	-3.068802357	5.062067509	-53.88245773	1.0
18	36.98199844	0	0	-3.338053465	5.189414024	-56.83252335	1.0
[LeftHandMiddle3]
16	29.50900078	0	0	-2.241634369	4.696948528	-51.63360977	1.0
17	29.50900078	0	0	-2.493422747	4.877236843	-54.75777435	1.0
18	29.50900078	0	0	-2.858444929	5.10414362	-59.09562302	1.0
[LeftHandMiddle4]
16	28.3390007	0	0	0	0	0	1.0
17	28.3390007	0	0	0	0	0	1.0
18	28.3390007	0	0	0	0	0	1.0
[LeftHandRing1]
16	91.04499817	-0.4390000105	-18.65100098	-10.80851936	7.597604275	-86.47286224	1.0
17	91.04499817	-0.4390000105	-18.65100098	-10.70691872	6.28237009	-86.18675232	1.0
18	91.04499817	-0.4390000105	-18.65100098	-10.79828358	5.41642952	-87.37303925	1.0
[LeftHandRing2]
16	31.54000092	0	0	-2.587561846	5.322519779	-59.32406235	1.0
17	31.54000092	0	0	-2.836372137	5.473757267	-62.272686	1.0
18	31.54000092	0	0	-3.238960028	5.683538437	-66.87110138	1.0
[LeftHandRing3]
16	29.37700081	0	0	-2.077896118	5.005680561	-57.10402298	1.0
17	29.37700081	0	0	-2.318575382	5.186467171	-60.14044571	1.0
18	29.37700081	0	0	-2.700788736	5.435495377	-64.74314117	1.0
[LeftHandRing4]
16	26.47500038	0	0	0	0	0	1.0
17	26.47500038	0	0	0	0	0	1.0
18	26.47500038	0	0	0	0	0	1.0
[LeftHandPinky1]
16	80.77799988	-4.887000084	-38.06099701	-17.22377968	7.56804657	-104.3509521	1.0
17	80.77799988	-4.887000084	-38.06099701	-14.62245178	6.39978981	-100.0993805	1.0
18	80.77799988	-4.887000084	-38.06099701	-12.43869591	5.139790535	-99.62610626	1.0
[LeftHandPinky2]
16	36	0	0	-2.915185213	4.50100565	-57.58433151	1.0
17	36	0	0	-3.287678719	4.691761971	-61.7849617	1.0
18	36	0	0	-3.740614176	4.879907131	-66.70905304	1.0
[LeftHandPinky3]
16	21.14200211	0	0	-2.445505142	5.073104858	-50.24721909	1.0
17	21.14200211	0	0	-2.798921108	5.299553394	-54.45142365	1.0
18	21.14200211	0	0	-3.23289156	5.531107426	-59.37930679	1.0
[LeftHandPinky4]
16	19.75699997	0	0	0	0	0	1.0
17	19.75699997	0	0	0	0	0	1.0
18	19.75699997	0	0	0	0	0	1.0
[RightShoulder]
16	-45.70000076	109.4620056	-26.28000069	-3.961458445	5.789606571	6.668408394	1.0
17	-45.70000076	109.4620056	-26.28000069	-3.946871996	7.25180769	8.968650818	1.0
18	-45.70000076	109.4620056	-26.28000069	-3.550655365	12.45032501	8.75296402	1.0
[RightArm]
16	-105.9280014	-5.248000145	-22.32099915	13.37097549	-15.87357807	48.76332855	1.0
17	-105.9280014	-5.248000145	-22.32099915	18.99515343	1.786276102	42.21998978	1.0
18	-105.9280014	-5.248000145	-22.32099915	18.07600403	17.0398941	41.82824707	1.0
[RightForeArm]
16	-278.414978	0	0	0	106.9877625	1.525878906e-05	1.0
17	-278.414978	0	0	7.6293858e-05	92.99575043	9.155264706e-05	1.0
18	-278.414978	0	0	-1.267094376e-05	83.22383118	-3.536333679e-05	1.0
[RightHand]
16	-283.2879944	0	0.0009999999311	-2.559114218	26.03787994	-6.646282673	1.0
17	-283.2879944	0	0.0009999999311	-9.614225388	21.63532066	-19.01494789	1.0
18	-283.2879944	0	0.0009999999311	-12.83814812	12.17337513	-22.67874908	1.0
[RightHandPinky1]
16	-80.76699829	-4.885000229	-38.06000137	-12.67541504	-11.10208035	75.13977814	1.0
17	-80.76699829	-4.885000229	-38.06000137	-12.29664898	-9.303372383	81.28310394	1.0
18	-80.76699829	-4.885000229	-38.06000137	-11.67008305	-8.165156364	83.06809998	1.0
[RightHandPinky2]
16	-36	0	0.0009999999311	-5.088749886	-5.194118023	80.66305542	1.0
17	-36	0	0.0009999999311	-5.362382412	-5.217259884	83.42060089	1.0
18	-36	0	0.0009999999311	-5.496880531	-5.223788261	84.77264404	1.0
[RightHandPinky3]
16	-21.14200211	0	0	-2.37697506	-1.885698199	47.50230789	1.0
17	-21.14200211	0	0	-2.598222256	-2.04769516	50.24254227	1.0
18	-21.14200211	0	0	-2.709455013	-2.123206377	51.58638	1.0
[RightHandPinky4]
16	-19.75699997	0	0	0	0	0	1.0
17	-19.75699997	0	0	0	0	0	1.0
18	-19.75699997	0	0	0	0	0	1.0
[RightHandRing1]
16	-91.03599548	-0.4390000105	-18.65100098	-8.634790421	-9.439224243	68.37758636	1.0
17	-91.03599548	-0.4390000105	-18.65100098	-9.717686653	-7.840391159	77.31073761	1.0
18	-91.03599548	-0.4390000105	-18.65100098	-10.02540112	-7.117305756	80.09994507	1.0
[RightHandRing2]
16	-31.54000092	0	0	-3.51354146	-5.803595543	69.91407013	1.0
17	-31.54000092	0	0	-3.523245096	-5.807549953	70.02031708	1.0
18	-31.54000092	0	0	-3.56595993	-5.824656487	70.48635864	1.0
[RightHandRing3]
16	-29.37700081	0	0	-1.913432598	-2.958708286	53.88248062	1.0
17	-29.37700081	0	0	-1.923904657	-2.967978239	54.0234642	1.0
18	-29.37700081	0	0	-1.958755612	-2.998654366	54.49094391	1.0
[RightHandRing4]
16	-26.47500038	0	0	0	0	0	1.0
17	-26.47500038	0	0	0	0	0	1.0
18	-26.47500038	0	0	0	0	0	1.0
[RightHandMiddle1]
16	-95.32500458	0	0	-5.274459839	-7.883719444	44.21933746	1.0
17	-95.32500458	0	0	-7.371718884	-7.677579403	59.17421722	1.0
18	-95.32500458	0	0	-8.229759216	-6.729780674	65.55664063	1.0
[RightHandMiddle2]
16	-36.98199844	0	0	-4.133409977	-5.473040104	65.20976257	1.0
17	-36.98199844	0	0	-4.080737114	-5.458182335	64.6676712	1.0
18	-36.98199844	0	0	-4.085402966	-5.459531307	64.71591187	1.0
[RightHandMiddle3]
16	-29.50900078	0	0	-2.730283976	-4.866882324	57.48570633	1.0
17	-29.50900078	0	0	-2.68465519	-4.838823795	56.94520569	1.0
18	-29.50900078	0	0	-2.689966202	-4.842130661	57.00832367	1.0
[RightHandMiddle4]
16	-28.3390007	0	0.0009999999311	0	0	0	1.0
17	-28.3390007	0	0.0009999999311	0	0	0	1.0
18	-28.3390007	0	0.0009999999311	0	0	0	1.0
[RightHandIndex1]
16	-91.08300018	-5.167999744	22.60099792	-4.839155674	-8.843269348	46.94235229	1.0
17	-91.08300018	-5.167999744	22.60099792	-5.531956673	-7.942988396	57.08584595	1.0
18	-91.08300018	-5.167999744	22.60099792	-5.026232719	-6.702490807	61.28525543	1.0
[RightHandIndex2]
16	-36.76399994	0	0	-3.392501593	-5.320483685	58.32736969	1.0
17	-36.76399994	0	0	-3.426198006	-5.335230827	58.69055939	1.0
18	-36.76399994	0	0	-3.441726208	-5.341919422	58.85726166	1.0
[RightHandIndex3]
16	-28.83100128	0	0	-2.041492939	-3.114922047	48.88099289	1.0
17	-28.83100128	0	0	-2.068896532	-3.138653278	49.2426033	1.0
18	-28.83100128	0	0	-2.081535578	-3.149483681	49.40855789	1.0
[RightHandIndex4]
16	-23.92700005	0	0	0	0	0	1.0
17	-23.92700005	0	0	0	0	0	1.0
18	-23.92700005	0	0	0	0	0	1.0
[RightHandThumb1]
16	-24.64799881	-15.72700024	26.82600021	14.44566917	-0.4179930985	-5.956228256	1.0
17	-24.64799881	-15.72700024	26.82600021	10.03282928	-2.694921017	-8.113362312	1.0
18	-24.64799881	-15.72700024	26.82600021	4.965482712	-5.282441616	-10.26550961	1.0
[RightHandThumb2]
16	-32.29800034	-18.64699936	18.64699936	4.450273991	-22.70461082	-4.580922127	1.0
17	-32.29800034	-18.64699936	18.64699936	4.450273991	-22.70461082	-4.580922127	1.0
18	-32.29800034	-18.64699936	18.64699936	4.450273991	-22.70461082	-4.580922127	1.0
[RightHandThumb3]
16	-26.52600098	-15.31399918	15.31399918	-12.58338261	9.9640131	3.83227396	1.0
17	-26.52600098	-15.31399918	15.31399918	-12.58338261	9.9640131	3.83227396	1.0
18	-26.52600098	-15.31399918	15.31399918	-12.58338261	9.9640131	3.83227396	1.0
[RightHandThumb4]
16	-19.54599953	-11.28499985	11.28499985	0	0	0	1.0
17	-19.54599953	-11.28499985	11.28499985	0	0	0	1.0
18	-19.54599953	-11.28499985	11.28499985	0	0	0	1.0
[LeftUpLeg]
16	82.07800293	-67.51699829	-15.99599934	-18.09934425	6.567813396	4.870580196	1.0
17	82.07800293	-67.51699829	-15.99599934	-35.9987793	8.78190136	9.202575684	1.0
18	82.07800293	-67.51699829	-15.99599934	-59.78541565	4.634468555	10.088521	1.0
[LeftLeg]
16	0	-443.7049866	2.845999956	117.3635101	-4.141673088	2.359694004	1.0
17	0	-443.7049866	2.845999956	130.3770447	-3.733268023	1.017278194	1.0
18	0	-443.7049866	2.845999956	131.1757813	0.2508208752	-0.5627543926	1.0
[LeftFoot]
16	0	-444.2789917	-29.8219986	7.675990582	9.136155128	-21.30147934	1.0
17	0	-444.2789917	-29.8219986	11.33414078	7.184454918	-3.204978466	1.0
18	0	-444.2789917	-29.8219986	13.94366932	0.7706716061	-1.889615655	1.0
[LeftToeBase]
16	0	-87.28699493	107.1060028	3.147504091	-1.646570666e-07	1.504114607e-05	1.0
17	0	-87.28699493	107.1060028	1.661155343	-1.974705583e-06	1.240629672e-06	1.0
18	0	-87.28699493	107.1060028	0.09504247457	-1.004059641e-06	9.097690281e-07	1.0
[RightUpLeg]
16	-82.07800293	-67.51699829	-15.99599934	-40.37167358	1.547809362	17.13074493	1.0
17	-82.07800293	-67.51699829	-15.99599934	-34.55578613	4.258486271	18.24114037	1.0
18	-82.07800293	-67.51699829	-15.99599934	-22.59646797	0.1094024107	18.30334663	1.0
[RightLeg]
16	0	-443.7049866	2.861999989	41.47268677	5.599206924	-0.1587711275	1.0
17	0	-443.7049866	2.861999989	49.52415848	2.262067318	-2.122328758	1.0
18	0	-443.7049866	2.861999989	43.15665436	4.412549496	-3.120090961	1.0
[RightFoot]
16	0	-444.2770081	-29.83799934	-3.866790533	0.3050600588	-6.19594717	1.0
17	0	-444.2770081	-29.83799934	-20.87605095	-2.151340961	-5.21850872	1.0
18	0	-444.2770081	-29.83799934	-29.56478691	-0.8791605234	-4.433102131	1.0
[RightToeBase]
16	0	-87.28699493	107.1060028	-6.258550167	4.627217152e-07	8.621198049e-07	1.0
17	0	-87.28699493	107.1060028	-4.864904404	-1.247153477e-06	-2.732730309e-06	1.0
18	0	-87.28699493	107.1060028	-3.122686148	-2.84429035e-07	-8.420790287e-09	1.0
[EndOfFile]
